<svg width="35" height="25" viewBox="0 0 35 25" fill="none" xmlns="http://www.w3.org/2000/svg">
<path d="M34.2686 3.85053C33.8661 2.33488 32.6801 1.14119 31.1743 0.736101C28.4448 0 17.5 0 17.5 0C17.5 0 6.55525 0 3.82573 0.736101C2.31988 1.14126 1.13389 2.33488 0.731359 3.85053C0 6.59774 0 12.3295 0 12.3295C0 12.3295 0 18.0613 0.731359 20.8085C1.13389 22.3242 2.31988 23.4681 3.82573 23.8732C6.55525 24.6093 17.5 24.6093 17.5 24.6093C17.5 24.6093 28.4447 24.6093 31.1743 23.8732C32.6801 23.4681 33.8661 22.3242 34.2686 20.8085C35 18.0613 35 12.3295 35 12.3295C35 12.3295 35 6.59774 34.2686 3.85053ZM13.9204 17.5336V7.12549L23.0681 12.3297L13.9204 17.5336Z" fill="white"/>
</svg>
